<?xml version="1.0" encoding="UTF-8" standalone="no"?><svg width="400" height="585" viewBox="0 0 400 585" fill="none" xmlns="http://www.w3.org/2000/svg">
<path d="M375.167 536.416C386.982 526.81 396.769 513.391 398.587 497.837C400.491 481.559 397.057 466.237 387.547 452.634C370.994 428.651 352.828 405.824 333.174 384.31C313.845 363.384 293.643 343.044 270.961 325.716C235.164 298.349 194.244 277.111 149.764 268.519C147.591 241.356 142.324 214.896 135.529 188.476C130.147 166.936 122.178 146.125 111.797 126.498C104.327 112.622 96.8302 98.8418 87.2951 86.2618C77.9474 74.1696 67.5396 62.9356 56.1954 52.6936C44.9932 42.4108 32.3884 34.6896 19.3261 26.9297C10.3777 21.5793 0.885393 17.1968 -8.99034 13.8563C-24.1254 8.76645 -39.6525 4.33577 -55.4728 2.49002C-72.5617 0.534108 -89.7977 0.208826 -106.948 1.51882C-125.943 3.00759 -144.322 7.36608 -162.774 11.9573C-178.249 15.8517 -193.434 20.8225 -208.217 26.8335C-249.766 43.5146 -289.25 66.2262 -326.459 90.9922C-346.256 104.167 -365.465 118.192 -384.232 132.802C-396.29 142.168 -405.199 156.185 -407.652 171.381C-410.011 186.066 -406.144 204.845 -396.611 216.584C-387.078 228.323 -373.587 238.194 -358.035 240.014C-342.215 241.86 -325.729 238.991 -312.841 228.979C-280.804 204.037 -247.425 180.691 -212.049 160.606C-184.452 145.899 -155.544 133.318 -125.34 125.144C-110.963 122.058 -96.3227 120.361 -81.6208 120.077C-72.6607 120.732 -63.7693 122.12 -55.0355 124.226C-48.334 126.609 -41.8145 129.475 -35.5286 132.803C-29.0065 137.255 -22.8366 142.204 -17.0734 147.603C-9.48371 156.289 -2.69579 165.643 3.20719 175.553C11.6877 192.646 18.3883 210.565 23.2032 229.029C26.7796 245.813 29.2332 262.817 30.548 279.927C1.72098 291.322 -23.7855 309.255 -45.9724 330.716C-68.2927 352.148 -86.6507 377.357 -100.2 405.179C-106.859 418.875 -111.321 433.37 -115.227 448.071C-118.807 461.556 -119.357 475.119 -119.302 489.073C-119.258 501.524 -116.638 513.832 -111.607 525.223C-108.229 532.634 -104.389 540.568 -99.0051 546.889C-88.9056 558.754 -82.015 563.951 -68.5252 571.394C-57.8586 577.287 -45.4077 580.935 -33.678 583.362C-25.4679 585.059 -16.7086 584.86 -8.38619 584.981C-5.11411 585.067 -1.84058 584.881 1.40081 584.426C24.9487 580.904 48.1928 571.25 65.8452 554.99C75.2922 546.29 84.4399 537.458 91.9307 527.023C99.8011 515.955 106.832 504.314 112.963 492.196C124.171 470.273 131.411 446.381 137.62 422.64C140.392 412.047 142.685 401.349 144.498 390.545C155.534 394.684 166.228 399.68 176.484 405.488C197.706 419.13 216.924 435.426 234.71 453.206C255.264 475.446 274.211 499.121 291.408 524.049C299.883 536.177 315.551 545.15 329.993 547.476C344.659 549.823 363.428 545.94 375.167 536.416Z" fill="#282828"/>
</svg>
